<svg xmlns="http://www.w3.org/2000/svg" width="17" height="25" viewBox="0 0 17 25">
  <g id="Polygon_3" data-name="Polygon 3" transform="translate(0 25) rotate(-90)" fill="#c7e1f7">
    <path d="M 19.07041931152344 16.5 L 5.929579257965088 16.5 C 4.96721887588501 16.5 4.133288860321045 15.98733901977539 3.698838949203491 15.12861919403076 C 3.264379024505615 14.2699089050293 3.345359086990356 13.29435920715332 3.915459156036377 12.51902866363525 L 10.48587894439697 3.583259105682373 C 10.96204948425293 2.935649156570435 11.69616889953613 2.564229011535645 12.49999904632568 2.564229011535645 C 13.30382919311523 2.564229011535645 14.03794860839844 2.935649156570435 14.51411914825439 3.583249092102051 L 21.08453941345215 12.51902866363525 C 21.65463829040527 13.29435920715332 21.73561859130859 14.2699089050293 21.3011589050293 15.12861919403076 C 20.86670875549316 15.98733901977539 20.03277969360352 16.5 19.07041931152344 16.5 Z" stroke="none"/>
    <path d="M 12.49999904632568 3.064229011535645 C 11.8569393157959 3.064229011535645 11.26963901519775 3.361358642578125 10.88869857788086 3.879448890686035 L 4.318279266357422 12.81521892547607 C 3.862199783325195 13.43548965454102 3.797418594360352 14.21592903137207 4.144989013671875 14.90289878845215 C 4.492549896240234 15.58986854553223 5.159688949584961 15.99999904632568 5.92957878112793 15.99999904632568 L 19.07041931152344 15.99999904632568 C 19.84030914306641 15.99999904632568 20.50745010375977 15.58986854553223 20.85500907897949 14.90289878845215 C 21.20257949829102 14.21592903137207 21.13779830932617 13.43548965454102 20.68171882629395 12.81521892547607 L 14.11129951477051 3.879448890686035 C 13.73034858703613 3.361369132995605 13.14305877685547 3.064229011535645 12.49999904632568 3.064229011535645 M 12.49999904632568 2.064229965209961 C 13.40876197814941 2.064229965209961 14.31752395629883 2.471839904785156 14.91694927215576 3.28705883026123 L 21.48736953735352 12.22282886505127 C 22.94408798217773 14.20396900177002 21.52947998046875 17 19.07041931152344 17 L 5.92957878112793 17 C 3.470518112182617 17 2.055908203125 14.20396900177002 3.512628555297852 12.22282886505127 L 10.08304882049561 3.28705883026123 C 10.68247413635254 2.471839904785156 11.59123611450195 2.064229965209961 12.49999904632568 2.064229965209961 Z" stroke="none" fill="#fff"/>
  </g>
</svg>
